<?xml version="1.0" encoding="utf-8"?>
<!-- Generator: Adobe Illustrator 22.1.0, SVG Export Plug-In . SVG Version: 6.00 Build 0)  -->
<svg version="1.1" id="Calque_1" xmlns="http://www.w3.org/2000/svg" xmlns:xlink="http://www.w3.org/1999/xlink" x="0px" y="0px"
	 viewBox="0 0 387 320" style="enable-background:new 0 0 387 320;" xml:space="preserve">
<style type="text/css">
	.st0{fill:#282327;}
	.st1{fill:#FFFFFF;}
</style>
<g>
	<title>cieletoile</title>
	<rect class="st0" width="387" height="320"/>
	<rect x="229" y="120.8" class="st1" width="3.5" height="3.5"/>
	<rect x="11.5" y="30.5" class="st1" width="3.2" height="3.2"/>
	<rect x="70.5" y="55.5" class="st1" width="4.5" height="4.5"/>
	<rect x="99.5" y="26.5" class="st1" width="4" height="4"/>
	<rect x="66.5" y="41" class="st1" width="3" height="3"/>
	<rect x="294.5" y="252.8" class="st1" width="4.5" height="4.5"/>
	<rect x="82" y="181" class="st1" width="2.2" height="2.2"/>
	<rect x="42.5" y="155" class="st1" width="1.2" height="1.2"/>
	<rect x="86.5" y="100" class="st1" width="3.5" height="3.5"/>
	<rect x="168" y="124" class="st1" width="2.8" height="2.8"/>
	<rect x="164" y="83" class="st1" width="1.5" height="1.5"/>
	<rect x="121.8" y="129.5" class="st1" width="1.9" height="1.9"/>
	<rect x="226.5" y="80.5" class="st1" width="2.5" height="2.5"/>
	<rect x="178.5" y="199" class="st1" width="2.2" height="2.2"/>
	<rect x="64" y="243" class="st1" width="5.5" height="1"/>
	<rect x="294.5" y="222.5" class="st1" width="2.2" height="2.2"/>
	<rect x="186" y="278.8" class="st1" width="1.2" height="1.2"/>
	<rect x="237.5" y="206.5" class="st1" width="3.5" height="3.5"/>
	<rect x="290.5" y="101.7" class="st1" width="1.8" height="1.8"/>
	<rect x="180.8" y="44" class="st1" width="1.9" height="1.9"/>
	<rect x="261.5" y="18.5" class="st1" width="1.8" height="1.8"/>
	<rect x="226.5" y="163.5" class="st1" width="1.2" height="1.2"/>
	<rect x="267" y="126.7" class="st1" width="1.4" height="1.4"/>
	<rect x="94.5" y="286.5" class="st1" width="3" height="3"/>
	<rect x="40.5" y="222.5" class="st1" width="2.6" height="2.6"/>
	<rect x="29" y="102.6" class="st1" width="0.9" height="0.9"/>
	<rect x="316.5" y="41" class="st1" width="1.5" height="1.5"/>
	<rect x="327.5" y="130.4" class="st1" width="0.9" height="0.9"/>
	<rect x="247.5" y="283" class="st1" width="3.5" height="3.5"/>
	<polygon class="st1" points="215.5,141 218.3,141 218.3,141 	"/>
	<polygon class="st1" points="261.5,44.9 264.3,44.9 264.3,44.9 	"/>
	<rect x="251" y="75" class="st1" width="2.5" height="2.5"/>
	<rect x="169.4" y="172.5" class="st1" width="1.4" height="1.4"/>
	<rect x="123.6" y="225.1" class="st1" width="2.4" height="2.4"/>
	<rect x="325" y="289.5" class="st1" width="3" height="3"/>
	<rect x="353" y="199" class="st1" width="2.2" height="2.2"/>
	<rect x="353" y="60" class="st1" width="2.2" height="2.2"/>
	<rect x="264.3" y="170.5" class="st1" width="4" height="4"/>
	<rect x="146" y="260" class="st1" width="4" height="0.5"/>
	<rect x="213.5" y="241" class="st1" width="2" height="2"/>
	<rect x="208" y="32.1" class="st1" width="1.6" height="1.6"/>
	<rect x="29.9" y="294.5" class="st1" width="4.6" height="1"/>
	<rect x="350" y="26.5" class="st1" width="2" height="2"/>
	<rect x="350" y="160" class="st1" width="2" height="2"/>
	<rect x="307" y="187.5" class="st0" width="2.5" height="2.5"/>
	<rect x="359.5" y="101.7" class="st0" width="1.3" height="1.3"/>
	<rect x="334.5" y="111.5" class="st0" width="2.5" height="2.5"/>
	<rect x="288" y="75" class="st0" width="1.2" height="1.2"/>
	<rect x="218.3" y="119.5" class="st0" width="3.1" height="3.1"/>
	<rect x="369.5" y="266" class="st0" width="2.8" height="2.8"/>
	<rect x="32.2" y="273" class="st0" width="2.3" height="2.3"/>
	<rect x="43.8" y="268.8" class="st1" width="4.2" height="4.2"/>
	<rect x="351" y="102.4" class="st1" width="2" height="2"/>
	<rect x="32.2" y="11" class="st1" width="2.3" height="2.3"/>
</g>
</svg>
