<svg xmlns="http://www.w3.org/2000/svg" viewBox="0 0 542.97 335.98"><defs><style>.cls-1{fill:#e6d196;}.cls-2{fill:#a92517;}.cls-3,.cls-4{fill:none;}.cls-4{stroke:#e6d196;stroke-miterlimit:10;stroke-width:2px;}</style></defs><title>fond_noir</title><g id="fond_noir" data-name="fond noir"><path class="cls-1" d="M133,283.77h7.72L144,296.24l4.22-12.47h7.19l4.38,12.47,3.35-12.47h7.65l-7.65,19.8h-7.09l-4.21-11.91-4.06,11.91h-7.13Z"/><path class="cls-2" d="M182.85,284.15q10,.3,10.48,9.66H179.92q-.15,6.21,1.49,7a3.15,3.15,0,0,0,3.25-.21q1.65-1,1.3-4.6h7.2q-1.51,6.15-6.33,7.19a15.41,15.41,0,0,1-9.06-.62q-4.2-1.68-5.48-7.66l0-1.34Q173.53,284.58,182.85,284.15Zm.1,2.08q-2.94.16-3,4.6h5.88C185.77,288,184.83,286.47,183,286.23Z"/><path class="cls-1" d="M202.55,285.05c1-.86,3.09-1.19,6.24-1q5,1.26,6.72,3.92a10.66,10.66,0,0,1,1.83,5.9,9.49,9.49,0,0,1-2,6.56q-2.27,3-7.11,3.11t-5.67-.56v.65h-8V275.44h7.94Zm3,1.18q-3.3.3-3.06,3.36v9c0,1.62,1,2.53,3,2.75q3.12-.23,3.37-5v-5.16C208.72,288,207.62,286.33,205.51,286.23Z"/><path class="cls-1" d="M240.5,275.44h7.94v28.22h-7.95l0-.65q-.93.74-5.67.56t-7.11-3.11a9.39,9.39,0,0,1-2-6.56,10.73,10.73,0,0,1,1.82-5.9q1.75-2.65,6.73-3.92c3.15-.22,5.23.11,6.24,1Zm-3,10.79c-2.12.1-3.22,1.75-3.3,5v5.16c.17,3.17,1.3,4.83,3.37,5,2-.22,3-1.13,3-2.75v-9Q240.83,286.53,237.54,286.23Z"/><path class="cls-1" d="M260.52,284.15q10,.3,10.48,9.66H257.6q-.17,6.21,1.49,7a3.13,3.13,0,0,0,3.24-.21c1.1-.67,1.53-2.2,1.31-4.6h7.19q-1.5,6.15-6.33,7.19a15.38,15.38,0,0,1-9.05-.62q-4.22-1.68-5.49-7.66V293.6Q251.2,284.58,260.52,284.15Zm.11,2.08q-3,.16-3,4.6h5.87C263.45,288,262.5,286.47,260.63,286.23Z"/><path class="cls-1" d="M272.08,284.23h8.07l4,12.28,4.35-12.28h8l-9,19.44h-3.87l-3.35.07Z"/><path class="cls-2" d="M308.53,284.15q10,.3,10.48,9.66H305.6q-.15,6.21,1.49,7a3.15,3.15,0,0,0,3.25-.21c1.1-.67,1.53-2.2,1.31-4.6h7.19q-1.51,6.15-6.33,7.19a15.42,15.42,0,0,1-9.06-.62q-4.2-1.68-5.48-7.66V293.6Q299.21,284.58,308.53,284.15Zm.1,2.08q-2.94.16-3,4.6h5.88C311.45,288,310.51,286.47,308.63,286.23Z"/><path class="cls-1" d="M320.33,276.23H328v27.34h-7.66Z"/><path class="cls-1" d="M329.46,293.18c.3-3.41,1.45-5.79,3.47-7.15a12,12,0,0,1,7.28-1.9h1.25a11.68,11.68,0,0,1,7.24,2.49,9.21,9.21,0,0,1,3,6.51c.08,3.52-.9,6.07-2.91,7.66a14,14,0,0,1-7.35,2.78h-1.3q-5.57-.42-8-2.94C330.43,299,329.57,296.49,329.46,293.18Zm11.12-6.67q-3.36.11-3.45,4.44v5.72q.24,4.23,3.52,4.46,3.25-.31,3.18-4.57V291C343.77,288,342.69,286.53,340.58,286.51Z"/><path class="cls-1" d="M360.84,310.93H352.9V284h8l0,.65c.62-.49,2.51-.67,5.67-.56s5.6,1.11,7.11,3.13a9.35,9.35,0,0,1,2,6.55,10.88,10.88,0,0,1-1.83,5.92q-1.74,2.63-6.72,3.89-4.72.35-6.24-1Zm3-9.51q3.17-.12,3.3-5v-5.16q-.25-4.75-3.37-5c-2,.22-3,1.14-3,2.76v9Q360.5,301.13,363.8,301.42Z"/><path class="cls-1" d="M387.71,284.15q10,.3,10.48,9.66H384.78q-.15,6.21,1.49,7a3.15,3.15,0,0,0,3.25-.21q1.65-1,1.3-4.6H398q-1.51,6.15-6.33,7.19a15.41,15.41,0,0,1-9.06-.62q-4.22-1.68-5.48-7.66l0-1.34Q378.39,284.58,387.71,284.15Zm.1,2.08q-2.94.16-3,4.6h5.87C390.63,288,389.68,286.47,387.81,286.23Z"/><path class="cls-1" d="M411.74,284.66q7.88-.66,7.85,5.85H413.5q.06-2.94-3.6-2.82c-1.34.29-2,1-2,2v13.94h-8.24V284.76h8.28l0,2.3A6,6,0,0,1,411.74,284.66Z"/><path class="cls-1" d="M447.1,44.09V209.53h26.56v9.38h-50.8V233h50.8v9.37H386.49V233H413V218.91H386.49v-9.38H413v-142l-.14-9.22,24.39,0V44.09l-50.8.14V34.86h87.17v9.24Zm-9.81,23H422.86V209.53h14.43Z"/><path class="cls-2" d="M334.54,43.54a75.41,75.41,0,0,0-37,8.85,94.64,94.64,0,0,0-28,22.64,98.68,98.68,0,0,0-21.94,62.74,98.64,98.64,0,0,0,21.94,62.74c7.79,9.11,16.74,17.18,28,22.65a78.72,78.72,0,0,0,37,9.11v9.37a94.63,94.63,0,0,1-73.32-35.41,108.36,108.36,0,0,1-24-68.46c0-24,7.5-48.16,24-68.2a97.87,97.87,0,0,1,31.17-25.51c12.7-6.25,27.42-10.16,42.15-9.89Zm0,23.42a50.09,50.09,0,0,0-24.25,5.73,67.59,67.59,0,0,0-19.92,16.14c-11.26,13.54-16.74,31.24-16.74,48.94s5.48,35.41,16.74,48.94a67.28,67.28,0,0,0,19.92,16.14,53.55,53.55,0,0,0,24.25,6v9.37a63,63,0,0,1-29.45-7.29A72.52,72.52,0,0,1,282,192.18a88.27,88.27,0,0,1,0-108.81,72.69,72.69,0,0,1,23.09-18.75,59.08,59.08,0,0,1,29.45-7Z"/><path class="cls-3" d="M164.89,232.87c1.36,0,4.9.26,8.44.26h6.93V219.07c-.41,0-13-.6-15.25-.59l-.59,0v14.4Z"/><path class="cls-1" d="M180.26,154.78s-.45,54.81,0,54.92-15.43-1.07-15.59-1l-.25,0v9.84l.59,0c2.25,0,14.84.63,15.25.59v14.06h-6.93c-3.54,0-7.08-.23-8.44-.26h-.47v9.37q3.53.27,7.18.27h19.05V154.78Z"/><path class="cls-1" d="M117,211.53c-11.55-10.42-19.34-22.91-24.82-36.45a94.92,94.92,0,0,1-6.64-41.91A103.47,103.47,0,0,1,96.83,92a93.21,93.21,0,0,1,29.74-33.58A100.32,100.32,0,0,1,148.21,48h0a86.85,86.85,0,0,1,24.23-3.64h0V35a90.39,90.39,0,0,0-27.71,4.16A92.56,92.56,0,0,0,120.5,50.91c-14.72,10.15-25.69,22.64-32.9,37a103.38,103.38,0,0,0-12.13,44.78A107.28,107.28,0,0,0,82.4,178.2a100.8,100.8,0,0,0,48.78,54.67,113,113,0,0,0,22.94,7.77V231A83,83,0,0,1,117,211.53Z"/><path class="cls-1" d="M135.23,194.86c-8.09-7.29-14.15-16.92-18.48-27.33-8.08-21.09-6.93-45.82,3.75-65.6A72.94,72.94,0,0,1,142.15,77.2a54.35,54.35,0,0,1,30.29-9.37l0,0V58.46a65.89,65.89,0,0,0-36.37,11.19A76.08,76.08,0,0,0,111,98a89.3,89.3,0,0,0-4,72.38A79.26,79.26,0,0,0,128,201.63c7.75,6.47,16.07,11.91,26.11,14.79V206.26A55.73,55.73,0,0,1,135.23,194.86Z"/><path class="cls-2" d="M154.28,216.68v-.21l-.16-.05V231l.16,0Z"/><path class="cls-2" d="M164.25,218.47l0,14.38h.15v-14.4Z"/><path class="cls-2" d="M154.12,154.83v61.59l.16.05v14.58l-.16,0v9.63l.16,0a66.77,66.77,0,0,0,10.14,1.55v-9.37h-.15l0-14.38h.17V154.83Z"/><line class="cls-4" x1="36.74" y1="294.34" x2="37.16" y2="160.92"/><line class="cls-4" x1="36.34" y1="294.35" x2="132.96" y2="294.22"/><line class="cls-4" x1="37.38" y1="160.5" x2="74.02" y2="160.17"/><line class="cls-4" x1="419.59" y1="294.34" x2="506.63" y2="294.34"/><line class="cls-4" x1="506.63" y1="294.34" x2="506.63" y2="160.34"/><line class="cls-4" x1="506.63" y1="160.34" x2="454.43" y2="160.34"/><rect class="cls-2" x="386.35" y="57.79" width="87.42" height="9.53"/></g></svg>