<svg id="Calque_1" data-name="Calque 1" xmlns="http://www.w3.org/2000/svg" viewBox="0 0 538.47 330.43"><defs><style>.cls-1{fill:#1d1d1b;}.cls-2{fill:#a92517;}.cls-3,.cls-5{fill:#302829;}.cls-4{fill:none;}.cls-5{stroke:#302829;stroke-miterlimit:10;stroke-width:2px;}</style></defs><title>fond_blanc</title><path class="cls-1" d="M133.33,279.85H141l3.35,12.47,4.22-12.47h7.19l4.38,12.47,3.35-12.47h7.65l-7.65,19.8h-7.09l-4.21-11.92-4.06,11.92H141Z"/><path class="cls-2" d="M183.21,280.23q10,.3,10.48,9.66H180.28q-.15,6.21,1.49,7a3.17,3.17,0,0,0,3.25-.21c1.1-.67,1.53-2.2,1.31-4.6h7.19q-1.52,6.13-6.33,7.18a15.38,15.38,0,0,1-9.05-.61q-4.21-1.68-5.49-7.66v-1.34Q173.89,280.65,183.21,280.23Zm.1,2.08q-2.94.17-3,4.6h5.88C186.13,284.09,185.19,282.55,183.31,282.31Z"/><path class="cls-1" d="M202.91,281.13c1-.86,3.1-1.19,6.24-1,3.32.84,5.56,2.15,6.72,3.91a10.63,10.63,0,0,1,1.83,5.9,9.51,9.51,0,0,1-2,6.57c-1.51,2-3.88,3-7.11,3.11s-5.05-.07-5.67-.56v.65h-8V271.52h7.94Zm3,1.18c-2.2.2-3.22,1.31-3.06,3.35v9c0,1.61,1,2.53,3,2.75q3.12-.23,3.37-5v-5.16Q209,282.45,205.87,282.31Z"/><path class="cls-1" d="M240.87,271.52h7.93v28.22h-8l0-.65q-.93.74-5.67.56c-3.22-.07-5.59-1.1-7.1-3.11a9.32,9.32,0,0,1-2-6.57,10.69,10.69,0,0,1,1.81-5.9c1.17-1.76,3.41-3.07,6.73-3.91,3.15-.22,5.23.11,6.25,1Zm-3,10.79q-3.18.13-3.3,5v5.16c.17,3.17,1.3,4.83,3.37,5,2-.22,3-1.14,3-2.75v-9C241.12,283.62,240.1,282.51,237.9,282.31Z"/><path class="cls-1" d="M260.88,280.23q10,.3,10.48,9.66H258c-.1,4.14.39,6.48,1.49,7a3.16,3.16,0,0,0,3.24-.21c1.1-.67,1.53-2.2,1.31-4.6h7.19q-1.5,6.13-6.33,7.18a15.39,15.39,0,0,1-9.05-.61Q251.6,297,250.32,291v-1.34Q251.55,280.65,260.88,280.23Zm.11,2.08q-3,.17-3,4.6h5.87C263.81,284.09,262.86,282.55,261,282.31Z"/><path class="cls-1" d="M272.44,280.31h8.07l4,12.28,4.35-12.28,8,0-9,19.45H284l-3.35.07Z"/><path class="cls-2" d="M308.89,280.23q10,.3,10.48,9.66H306q-.15,6.21,1.49,7a3.17,3.17,0,0,0,3.25-.21c1.1-.67,1.53-2.2,1.31-4.6h7.19q-1.51,6.13-6.33,7.18a15.38,15.38,0,0,1-9.05-.61q-4.21-1.68-5.49-7.66v-1.34Q299.56,280.65,308.89,280.23Zm.1,2.08q-2.94.17-3,4.6h5.88C311.81,284.09,310.87,282.55,309,282.31Z"/><path class="cls-1" d="M320.69,272.31h7.66v27.34h-7.66Z"/><path class="cls-1" d="M329.83,289.26c.29-3.41,1.44-5.8,3.46-7.15a12,12,0,0,1,7.28-1.9h1.25a11.73,11.73,0,0,1,7.25,2.49,9.24,9.24,0,0,1,3,6.5q.12,5.3-2.91,7.66a13.92,13.92,0,0,1-7.35,2.79h-1.3q-5.57-.42-8-2.94C330.8,295.06,329.93,292.57,329.83,289.26Zm11.11-6.67c-2.24.06-3.39,1.55-3.45,4.44v5.71q.24,4.25,3.52,4.47,3.25-.31,3.18-4.57V287.1C344.14,284.11,343.05,282.61,340.94,282.59Z"/><path class="cls-1" d="M361.2,307h-7.94V280.07h8v.65q.93-.74,5.67-.56t7.11,3.13a9.34,9.34,0,0,1,2,6.55,10.74,10.74,0,0,1-1.83,5.91q-1.74,2.64-6.72,3.9c-3.14.23-5.23-.09-6.24-1Zm3-9.51q3.16-.12,3.3-5v-5.16q-.25-4.75-3.37-5c-2,.22-3,1.14-3,2.75v9C360.94,296.19,362,297.3,364.16,297.5Z"/><path class="cls-1" d="M388.07,280.23q10,.3,10.48,9.66H385.14q-.15,6.21,1.49,7a3.17,3.17,0,0,0,3.25-.21q1.65-1,1.3-4.6h7.2q-1.51,6.13-6.33,7.18a15.41,15.41,0,0,1-9.06-.61q-4.2-1.68-5.48-7.66l0-1.34Q378.75,280.65,388.07,280.23Zm.1,2.08q-2.94.17-3,4.6H391C391,284.09,390.05,282.55,388.17,282.31Z"/><path class="cls-1" d="M412.1,280.74q7.88-.67,7.85,5.85h-6.09c.05-2-1.16-2.9-3.6-2.82-1.34.29-2,1-2,2V299.7H400V280.84h8.28l0,2.29A6,6,0,0,1,412.1,280.74Z"/><path class="cls-3" d="M447.46,40.16V205.61H474V215h-50.8v14H474v9.37H386.85V229H413.4V215H386.85v-9.38H413.4v-142l-.14-9.22,24.39,0V40.16l-50.8.15V30.94H474v9.23Zm-9.81,23.06H423.22V205.61h14.43Z"/><path class="cls-2" d="M334.9,39.61A75.55,75.55,0,0,0,298,48.47a94.48,94.48,0,0,0-28,22.64A98.66,98.66,0,0,0,248,133.85,98.66,98.66,0,0,0,270,196.59c7.79,9.11,16.74,17.18,28,22.64a78.64,78.64,0,0,0,36.95,9.12v9.37a94.63,94.63,0,0,1-73.32-35.41,108.36,108.36,0,0,1-24-68.46c0-23.95,7.5-48.16,24-68.2a97.74,97.74,0,0,1,31.17-25.51c12.7-6.25,27.42-10.16,42.15-9.9Zm0,23.43a50.09,50.09,0,0,0-24.25,5.73,67.53,67.53,0,0,0-19.92,16.14C279.47,98.45,274,116.15,274,133.85s5.48,35.4,16.74,48.94a67.69,67.69,0,0,0,19.92,16.14,53.55,53.55,0,0,0,24.25,6v9.37A63,63,0,0,1,305.45,207a72.79,72.79,0,0,1-23.09-18.74,88.28,88.28,0,0,1,0-108.82A72.66,72.66,0,0,1,305.45,60.7a59.08,59.08,0,0,1,29.45-7Z"/><path class="cls-4" d="M166.36,229.05c1.35,0,4.89.26,8.43.26h6.93V215.25c-.4,0-13-.6-15.25-.59l-.59,0V229Z"/><path class="cls-3" d="M181.72,151s-.44,54.81,0,54.93-15.43-1.07-15.59-1l-.25-.05v9.85l.59,0c2.25,0,14.85.63,15.25.59v14.06h-6.93c-3.54,0-7.08-.23-8.43-.26l-.48,0v9.37q3.52.28,7.18.28h19.05V151Z"/><path class="cls-3" d="M118.5,207.7C107,197.29,99.16,184.79,93.68,171.26A95,95,0,0,1,87,129.35,103.65,103.65,0,0,1,98.3,88.22,93.21,93.21,0,0,1,128,54.63a100.86,100.86,0,0,1,21.65-10.41h0a87,87,0,0,1,24.24-3.64h0V31.21a90.11,90.11,0,0,0-27.72,4.16A92.33,92.33,0,0,0,122,47.09c-14.72,10.15-25.69,22.64-32.91,37a103.47,103.47,0,0,0-12.12,44.77,107,107,0,0,0,6.93,45.56,100.8,100.8,0,0,0,48.78,54.67,113.17,113.17,0,0,0,22.93,7.77v-9.64A83,83,0,0,1,118.5,207.7Z"/><path class="cls-3" d="M136.69,191c-8.08-7.29-14.14-16.92-18.47-27.34-8.09-21.08-6.93-45.81,3.75-65.6a72.7,72.7,0,0,1,21.65-24.72A54.36,54.36,0,0,1,173.91,64h0V54.63a65.9,65.9,0,0,0-36.37,11.2A76.11,76.11,0,0,0,112.44,94.2a89.32,89.32,0,0,0-4,72.37,79.39,79.39,0,0,0,21.07,31.24c7.76,6.47,16.08,11.91,26.11,14.79V202.43A55.79,55.79,0,0,1,136.69,191Z"/><path class="cls-2" d="M155.74,212.85v-.2l-.16-.05v14.58l.16,0Z"/><path class="cls-2" d="M165.72,214.65V229h.15V214.64A.46.46,0,0,0,165.72,214.65Z"/><path class="cls-2" d="M155.58,151V212.6l.16.05v14.57l-.16,0v9.64l.16,0a67,67,0,0,0,10.14,1.54V229h-.15V214.65a.46.46,0,0,1,.16,0V151Z"/><rect class="cls-2" x="386.71" y="53.86" width="87.42" height="9.53"/><line class="cls-5" x1="37.1" y1="290.42" x2="37.52" y2="157"/><line class="cls-5" x1="37.1" y1="290.42" x2="132.16" y2="291.29"/><line class="cls-5" x1="37.74" y1="156.58" x2="74.38" y2="156.25"/><line class="cls-5" x1="419.95" y1="290.42" x2="506.99" y2="290.42"/><line class="cls-5" x1="506.99" y1="290.42" x2="506.99" y2="156.42"/><line class="cls-5" x1="506.99" y1="156.42" x2="454.79" y2="156.42"/></svg>